<svg width="67" height="75" viewBox="0 0 67 75" fill="none" xmlns="http://www.w3.org/2000/svg">
<g filter="url(#filter0_d_1032_989)">
<ellipse cx="33.4694" cy="33.0475" rx="23.0475" ry="23.0475" fill="white"/>
</g>
<g clip-path="url(#clip0_1032_989)">
<path d="M37.4417 23.5571H30.6373C28.4227 23.5571 26.6211 25.6973 26.6211 28.3279V36.411C26.6211 39.0415 28.4227 41.1817 30.6373 41.1817H37.4418C39.6563 41.1817 41.4579 39.0415 41.4579 36.411V28.3279C41.4579 25.6973 39.6563 23.5571 37.4417 23.5571V23.5571ZM40.5881 36.411C40.5881 38.4718 39.1767 40.1484 37.4417 40.1484H30.6373C28.9023 40.1484 27.4909 38.4718 27.4909 36.411V28.3279C27.4909 26.267 28.9023 24.5904 30.6373 24.5904H37.4418C39.1767 24.5904 40.5881 26.267 40.5881 28.3279V36.411Z" fill="black"/>
<path d="M34.0393 27.5503C31.8023 27.5503 29.9824 29.7121 29.9824 32.3694C29.9824 35.0267 31.8023 37.1884 34.0393 37.1884C36.2762 37.1884 38.0961 35.0267 38.0961 32.3694C38.0961 29.7121 36.2762 27.5503 34.0393 27.5503ZM34.0393 36.1552C32.282 36.1552 30.8522 34.4569 30.8522 32.3694C30.8522 30.2819 32.282 28.5835 34.0393 28.5835C35.7966 28.5835 37.2263 30.2819 37.2263 32.3694C37.2263 34.4569 35.7966 36.1552 34.0393 36.1552Z" fill="black"/>
<path d="M38.1929 25.8389C37.5318 25.8389 36.9941 26.4777 36.9941 27.2628C36.9941 28.0481 37.5318 28.687 38.1929 28.687C38.8539 28.687 39.3917 28.0481 39.3917 27.2628C39.3917 26.4776 38.8539 25.8389 38.1929 25.8389ZM38.1929 27.6536C38.0115 27.6536 37.8639 27.4783 37.8639 27.2628C37.8639 27.0473 38.0115 26.8721 38.1929 26.8721C38.3743 26.8721 38.5219 27.0473 38.5219 27.2628C38.5219 27.4783 38.3743 27.6536 38.1929 27.6536Z" fill="black"/>
</g>
<defs>
<filter id="filter0_d_1032_989" x="0.0673828" y="0" width="66.8037" height="74.0952" filterUnits="userSpaceOnUse" color-interpolation-filters="sRGB">
<feFlood flood-opacity="0" result="BackgroundImageFix"/>
<feColorMatrix in="SourceAlpha" type="matrix" values="0 0 0 0 0 0 0 0 0 0 0 0 0 0 0 0 0 0 127 0" result="hardAlpha"/>
<feOffset dy="4"/>
<feGaussianBlur stdDeviation="7"/>
<feColorMatrix type="matrix" values="0 0 0 0 0 0 0 0 0 0 0 0 0 0 0 0 0 0 0.15 0"/>
<feBlend mode="normal" in2="BackgroundImageFix" result="effect1_dropShadow_1032_989"/>
<feBlend mode="normal" in="SourceGraphic" in2="effect1_dropShadow_1032_989" result="shape"/>
</filter>
<clipPath id="clip0_1032_989">
<rect width="14.8368" height="17.6246" fill="white" transform="translate(26.6211 23.5571)"/>
</clipPath>
</defs>
</svg>
