<svg width="67" height="75" viewBox="0 0 67 75" fill="none" xmlns="http://www.w3.org/2000/svg">
<g filter="url(#filter0_d_1032_1003)">
<ellipse cx="33.5983" cy="33.048" rx="23.0475" ry="23.0475" fill="white"/>
</g>
<g clip-path="url(#clip0_1032_1003)">
<path d="M39.301 39.8264V39.8258H39.3041V34.3564C39.3041 31.6807 38.8192 29.6196 36.186 29.6196C34.9201 29.6196 34.0706 30.4448 33.7238 31.2271H33.6872V29.8694H31.1904V39.8258H33.7902V34.8958C33.7902 33.5977 33.9974 32.3425 35.3506 32.3425C36.684 32.3425 36.7038 33.8239 36.7038 34.979V39.8264H39.301Z" fill="black"/>
<path d="M26.957 29.8696H29.5599V39.826H26.957V29.8696Z" fill="black"/>
<path d="M28.2576 24.9131C27.4253 24.9131 26.75 25.7153 26.75 26.7039C26.75 27.6925 27.4253 28.5115 28.2576 28.5115C29.0898 28.5115 29.7651 27.6925 29.7651 26.7039C29.7646 25.7153 29.0893 24.9131 28.2576 24.9131V24.9131Z" fill="black"/>
</g>
<defs>
<filter id="filter0_d_1032_1003" x="0.196289" y="0.000488281" width="66.8037" height="74.0952" filterUnits="userSpaceOnUse" color-interpolation-filters="sRGB">
<feFlood flood-opacity="0" result="BackgroundImageFix"/>
<feColorMatrix in="SourceAlpha" type="matrix" values="0 0 0 0 0 0 0 0 0 0 0 0 0 0 0 0 0 0 127 0" result="hardAlpha"/>
<feOffset dy="4"/>
<feGaussianBlur stdDeviation="7"/>
<feColorMatrix type="matrix" values="0 0 0 0 0 0 0 0 0 0 0 0 0 0 0 0 0 0 0.15 0"/>
<feBlend mode="normal" in2="BackgroundImageFix" result="effect1_dropShadow_1032_1003"/>
<feBlend mode="normal" in="SourceGraphic" in2="effect1_dropShadow_1032_1003" result="shape"/>
</filter>
<clipPath id="clip0_1032_1003">
<rect width="12.5542" height="14.9131" fill="white" transform="translate(26.75 24.9131)"/>
</clipPath>
</defs>
</svg>
